<svg width="64" height="64" viewBox="0 0 64 64" fill="none" xmlns="http://www.w3.org/2000/svg">
<path d="M49.669 15.595C49.212 8.019 42.468 2 34.193 2C29.273 2 24.896 4.132 22.052 7.448C20.6742 7.06969 19.2518 6.87765 17.823 6.877C9.548 6.877 2.84 13.106 2.84 20.787C2.84 23.546 3.716 26.111 5.208 28.274C3.204 30.736 2 33.792 2 37.116C2 45.231 9.085 51.808 17.824 51.808C21.621 51.808 25.084 50.544 27.808 48.472C27.874 48.907 27.935 49.352 28.002 49.784C28.652 54.028 29.221 58.105 28.928 62L35.928 61.925C35.643 57.576 34.533 53.507 33.411 49.658C35.3058 50.5987 37.3926 51.0878 39.508 51.087C46.595 51.087 52.348 45.832 52.523 39.291C57.99 37.854 62 33.196 62 27.661C62 21.197 56.538 15.934 49.669 15.595ZM51.76 36.39L49.584 36.962L49.523 39.211C49.392 44.106 44.899 48.087 39.507 48.087C36.664 48.087 33.979 46.982 32.069 45.058C31.296 42.348 30.6 39.662 30.157 36.944C31.757 36.867 33.315 36.672 34.878 36.384C37.055 35.975 39.192 35.362 41.215 34.488C43.235 33.618 45.138 32.48 46.773 31.055C48.3954 29.6509 49.7374 27.9523 50.728 26.049C49.6064 27.8485 48.1562 29.4209 46.453 30.684C44.758 31.948 42.842 32.901 40.843 33.59C38.842 34.281 36.754 34.715 34.649 34.95C33.07 35.1277 31.4803 35.1929 29.892 35.145C29.448 31.468 29.532 27.732 30.33 24.057C31.212 19.951 32.933 15.968 35.192 12.271C32.454 15.65 30.151 19.439 28.644 23.602C27.769 26.001 27.197 28.516 26.877 31.069C26.1415 30.66 25.4235 30.2203 24.725 29.751C23.4398 28.8896 22.2373 27.9107 21.133 26.827C18.945 24.67 17.205 21.961 16.682 18.875C16.866 21.997 18.342 24.993 20.381 27.466C21.4122 28.7126 22.5575 29.8603 23.802 30.894C24.722 31.659 25.662 32.369 26.682 33.027C26.5907 34.2528 26.556 35.4821 26.578 36.711C26.607 38.759 26.777 40.79 27.011 42.8C26.2681 42.7498 25.528 42.665 24.793 42.546C23.2588 42.3033 21.7563 41.8911 20.313 41.317C17.428 40.177 14.824 38.25 13.023 35.674C14.532 38.414 16.984 40.69 19.881 42.189C21.3387 42.947 22.8757 43.5416 24.464 43.962C25.378 44.201 26.292 44.395 27.228 44.535C27.248 44.679 27.271 44.818 27.291 44.962C24.855 47.405 21.425 48.809 17.826 48.809C10.753 48.809 5 43.563 5 37.116C5 34.607 5.876 32.205 7.535 30.169L8.956 28.424L7.678 26.571C6.476 24.828 5.841 22.828 5.841 20.787C5.841 14.771 11.217 9.877 17.824 9.877C18.974 9.877 20.131 10.034 21.263 10.342L23.095 10.842L24.33 9.401C26.728 6.604 30.323 5 34.193 5C40.827 5 46.309 9.733 46.674 15.775L46.835 18.458L49.521 18.591C54.836 18.854 59 22.837 59 27.661C59 31.68 56.022 35.269 51.76 36.39Z" fill="black"/>
</svg>
